<?xml version="1.0" encoding="iso-8859-1"?>
<!-- Generator: Adobe Illustrator 19.0.0, SVG Export Plug-In . SVG Version: 6.00 Build 0)  -->
<svg version="1.1" id="Layer_1" xmlns="http://www.w3.org/2000/svg" xmlns:xlink="http://www.w3.org/1999/xlink" x="0px" y="0px"
	 viewBox="0 0 512 512" style="enable-background:new 0 0 512 512;" xml:space="preserve">
<path style="fill:#5D9BEB;" d="M0,256.006C0,397.402,114.606,512.004,255.996,512C397.394,512.004,512,397.402,512,256.006
	C512.009,114.61,397.394,0,255.996,0C114.606,0,0,114.614,0,256.006z"/>
<path style="fill:#4988DB;" d="M509.955,287.875c-0.315-0.361-76.036-76.229-76.636-76.636c-1.173-1.436-2.657-2.578-4.56-2.839
	l-54.318-7.551c-0.457-0.461-113.435-113.677-114.047-114.034c-1.389-1.474-3.147-2.549-5.234-2.549h-0.052
	c-2.844,0.023-5.433,1.657-6.672,4.217l-50.633,104.73L83.135,210.726c-2.8,0.43-5.125,2.406-5.987,5.117
	c-0.86,2.706-0.11,5.659,1.933,7.635l83.204,83.198l-18.438,112.379c-0.45,2.746,0.683,5.491,2.901,7.161
	c0.417,0.555,83.946,84.086,84.517,84.515c0.017,0.023,0.045,0.039,0.061,0.063c8.123,0.777,16.345,1.205,24.671,1.205
	C386.594,512.004,494.258,414.217,509.955,287.875z"/>
<path style="fill:#F4F6F9;" d="M434.82,213.431c-0.905-2.69-3.245-4.644-6.06-5.031l-114.887-15.969L261.84,88.394
	c-1.268-2.53-3.85-4.127-6.679-4.127c-0.015,0-0.036,0-0.051,0c-2.844,0.022-5.433,1.655-6.672,4.214l-50.634,104.731
	L83.136,210.726c-2.8,0.43-5.126,2.406-5.986,5.119c-0.861,2.705-0.11,5.659,1.933,7.634l83.614,80.697l-18.849,114.88
	c-0.46,2.807,0.715,5.629,3.034,7.284c1.291,0.926,2.807,1.393,4.338,1.393c1.211,0,2.421-0.291,3.53-0.89l102.288-54.848
	l103.017,53.47c2.538,1.312,5.571,1.079,7.868-0.612c2.289-1.684,3.42-4.521,2.924-7.321l-20.38-114.618l82.527-81.82
	C435.003,219.097,435.717,216.129,434.82,213.431z M307.923,206.679l83.221,11.565l-127.679,28.445V125.024l38.806,77.601
	C303.373,204.827,305.488,206.343,307.923,206.679z M203.945,207.379c2.428-0.372,4.521-1.918,5.593-4.127l38.996-80.652v124.043
	l-121.242-27.555L203.945,207.379z M107.174,229.837l136.724,31.074l-78.881,121.356l13.041-79.534
	c0.401-2.421-0.416-4.878-2.18-6.585L107.174,229.837z M253.447,356.975l-83.161,44.596l85.793-131.994l86.743,130.118
	l-82.405-42.771C258.23,355.787,255.62,355.808,253.447,356.975z M335.077,301.675l14.421,81.115l-81.243-121.866l133.298-29.692
	l-64.384,63.837C335.427,296.797,334.647,299.262,335.077,301.675z"/>
<g>
</g>
<g>
</g>
<g>
</g>
<g>
</g>
<g>
</g>
<g>
</g>
<g>
</g>
<g>
</g>
<g>
</g>
<g>
</g>
<g>
</g>
<g>
</g>
<g>
</g>
<g>
</g>
<g>
</g>
</svg>
